<svg version="1.1" id="Layer_1" xmlns="http://www.w3.org/2000/svg" xmlns:xlink="http://www.w3.org/1999/xlink" x="0px" y="0px" viewBox="99 334.4 454 411" style="enable-background:new 99 334.4 454 411;" xml:space="preserve">
 <style type="text/css">
  .st0{fill:#E3032D;}
 </style>
 <g>
  <path class="st0" d="M373.1,436.9c0,30,0,58.7,0,87.9c-90.9,55.4-182,110.9-273.9,167c0-46.2,0-91.4,0-137.1
		C190,515.6,281.1,476.5,373.1,436.9z">
  </path>
  <path class="st0" d="M372.9,334.4c0,27.2,0,53.3,0,79.9c-91,39.1-182.1,78.2-273.9,117.6c0-41.8,0-82.5,0-123.9
		C189.9,383.6,280.9,359.1,372.9,334.4z">
  </path>
  <path class="st0" d="M372.9,549.4c0,32.4,0,63.7,0,95.9c-34.3,33-69.1,66.5-104,100.1c-56.5,0-112.8,0-169.7,0c0-9.6,0-19.2,0-29.1
		C190.1,660.8,281.1,605.3,372.9,549.4z">
  </path>
  <path class="st0" d="M553,536c-14.2,35-28.2,69.5-42.2,104.1c-38.8,0-77.1,0-116,0c0-76.5,0-152.7,0-230.5
		C448,452.1,500.4,494,553,536z">
  </path>
  <path class="st0" d="M478.7,745.4c-59.7,0-118.7,0-179.7,0c29.7-28.6,58.4-56.2,87.2-83.9c30.7,0,61.4,0,92.5,0
		C478.7,689.4,478.7,717,478.7,745.4z">
  </path>
 </g>
</svg>